<?xml version="1.0" encoding="UTF-8" standalone="no"?>
<!-- Created with Inkscape (http://www.inkscape.org/) -->

<svg
   width="1057.2535"
   height="838.14917"
   viewBox="0 0 1057.2535 838.14917"
   version="1.1"
   id="svg1"
   xml:space="preserve"
   xmlns="http://www.w3.org/2000/svg"
   xmlns:svg="http://www.w3.org/2000/svg"><defs
     id="defs1"><meshgradient
       id="meshgradient1707"
       gradientUnits="userSpaceOnUse"
       x="11.05641"
       y="11.882043"><meshrow
         id="meshrow1707"><meshpatch
           id="meshpatch1707"><stop
             path="c 117.473,0  234.945,0  352.418,0"
             style="stop-color:#ffffff;stop-opacity:1"
             id="stop1707" /><stop
             path="c 0,85.9497  0,171.899  0,257.849"
             style="stop-color:#000000;stop-opacity:1"
             id="stop1708" /><stop
             path="c -117.473,0  -234.945,0  -352.418,0"
             style="stop-color:#ffffff;stop-opacity:1"
             id="stop1709" /><stop
             path="c 0,-85.9497  0,-171.899  0,-257.849"
             style="stop-color:#000000;stop-opacity:1"
             id="stop1710" /></meshpatch><meshpatch
           id="meshpatch1710"><stop
             path="c 117.473,0  234.945,0  352.418,0"
             id="stop1711" /><stop
             path="c 0,85.9497  0,171.899  0,257.849"
             style="stop-color:#ffffff;stop-opacity:1"
             id="stop1712" /><stop
             path="c -117.473,0  -234.945,0  -352.418,0"
             style="stop-color:#000000;stop-opacity:1"
             id="stop1713" /></meshpatch><meshpatch
           id="meshpatch1713"><stop
             path="c 117.473,0  234.945,0  352.418,0"
             id="stop1714" /><stop
             path="c 0,85.9497  0,171.899  0,257.849"
             style="stop-color:#000000;stop-opacity:1"
             id="stop1715" /><stop
             path="c -117.473,0  -234.945,0  -352.418,0"
             style="stop-color:#ffffff;stop-opacity:1"
             id="stop1716" /></meshpatch></meshrow><meshrow
         id="meshrow1716"><meshpatch
           id="meshpatch1716"><stop
             path="c 0,85.9497  0,171.899  0,257.849"
             id="stop1717" /><stop
             path="c -117.473,0  -234.945,0  -352.418,0"
             style="stop-color:#000000;stop-opacity:1"
             id="stop1718" /><stop
             path="c 0,-85.9497  0,-171.899  0,-257.849"
             style="stop-color:#ffffff;stop-opacity:1"
             id="stop1719" /></meshpatch><meshpatch
           id="meshpatch1719"><stop
             path="c 0,85.9497  0,171.899  0,257.849"
             id="stop1720" /><stop
             path="c -117.473,0  -234.945,0  -352.418,0"
             style="stop-color:#ffffff;stop-opacity:1"
             id="stop1721" /></meshpatch><meshpatch
           id="meshpatch1721"><stop
             path="c 0,85.9497  0,171.899  0,257.849"
             id="stop1722" /><stop
             path="c -117.473,0  -234.945,0  -352.418,0"
             style="stop-color:#000000;stop-opacity:1"
             id="stop1723" /></meshpatch></meshrow><meshrow
         id="meshrow1723"><meshpatch
           id="meshpatch1723"><stop
             path="c 0,85.9497  0,171.899  0,257.849"
             id="stop1724" /><stop
             path="c -117.473,0  -234.945,0  -352.418,0"
             style="stop-color:#ffffff;stop-opacity:1"
             id="stop1725" /><stop
             path="c 0,-85.9497  0,-171.899  0,-257.849"
             style="stop-color:#000000;stop-opacity:1"
             id="stop1726" /></meshpatch><meshpatch
           id="meshpatch1726"><stop
             path="c 0,85.9497  0,171.899  0,257.849"
             id="stop1727" /><stop
             path="c -117.473,0  -234.945,0  -352.418,0"
             style="stop-color:#000000;stop-opacity:1"
             id="stop1728" /></meshpatch><meshpatch
           id="meshpatch1728"><stop
             path="c 0,85.9497  0,171.899  0,257.849"
             id="stop1729" /><stop
             path="c -117.473,0  -234.945,0  -352.418,0"
             style="stop-color:#ffffff;stop-opacity:1"
             id="stop1730" /></meshpatch></meshrow></meshgradient><meshgradient
       id="meshgradient2"
       gradientUnits="userSpaceOnUse"
       x="11.05641"
       y="11.882043"><meshrow
         id="meshrow11"><meshpatch
           id="meshpatch5"><stop
             path="c 117.473,0  234.945,0  352.418,0"
             style="stop-color:#ffffff;stop-opacity:1"
             id="stop2" /><stop
             path="c 0,85.9497  0,171.899  0,257.849"
             style="stop-color:#000000;stop-opacity:1"
             id="stop3" /><stop
             path="c -117.473,0  -234.945,0  -352.418,0"
             style="stop-color:#ffffff;stop-opacity:1"
             id="stop4" /><stop
             path="c 0,-85.9497  0,-171.899  0,-257.849"
             style="stop-color:#000000;stop-opacity:1"
             id="stop5" /></meshpatch><meshpatch
           id="meshpatch8"><stop
             path="c 117.473,0  234.945,0  352.418,0"
             id="stop6" /><stop
             path="c 0,85.9497  0,171.899  0,257.849"
             style="stop-color:#ffffff;stop-opacity:1"
             id="stop7" /><stop
             path="c -117.473,0  -234.945,0  -352.418,0"
             style="stop-color:#000000;stop-opacity:1"
             id="stop8" /></meshpatch><meshpatch
           id="meshpatch11"><stop
             path="c 117.473,0  234.945,0  352.418,0"
             id="stop9" /><stop
             path="c 0,85.9497  0,171.899  0,257.849"
             style="stop-color:#000000;stop-opacity:1"
             id="stop10" /><stop
             path="c -117.473,0  -234.945,0  -352.418,0"
             style="stop-color:#ffffff;stop-opacity:1"
             id="stop11" /></meshpatch></meshrow><meshrow
         id="meshrow18"><meshpatch
           id="meshpatch14"><stop
             path="c 0,85.9497  0,171.899  0,257.849"
             id="stop12" /><stop
             path="c -117.473,0  -234.945,0  -352.418,0"
             style="stop-color:#000000;stop-opacity:1"
             id="stop13" /><stop
             path="c 0,-85.9497  0,-171.899  0,-257.849"
             style="stop-color:#ffffff;stop-opacity:1"
             id="stop14" /></meshpatch><meshpatch
           id="meshpatch16"><stop
             path="c 0,85.9497  0,171.899  0,257.849"
             id="stop15" /><stop
             path="c -117.473,0  -234.945,0  -352.418,0"
             style="stop-color:#ffffff;stop-opacity:1"
             id="stop16" /></meshpatch><meshpatch
           id="meshpatch18"><stop
             path="c 0,85.9497  0,171.899  0,257.849"
             id="stop17" /><stop
             path="c -117.473,0  -234.945,0  -352.418,0"
             style="stop-color:#000000;stop-opacity:1"
             id="stop18" /></meshpatch></meshrow><meshrow
         id="meshrow25"><meshpatch
           id="meshpatch21"><stop
             path="c 0,85.9497  0,171.899  0,257.849"
             id="stop19" /><stop
             path="c -117.473,0  -234.945,0  -352.418,0"
             style="stop-color:#ffffff;stop-opacity:1"
             id="stop20" /><stop
             path="c 0,-85.9497  0,-171.899  0,-257.849"
             style="stop-color:#000000;stop-opacity:1"
             id="stop21" /></meshpatch><meshpatch
           id="meshpatch23"><stop
             path="c 0,85.9497  0,171.899  0,257.849"
             id="stop22" /><stop
             path="c -117.473,0  -234.945,0  -352.418,0"
             style="stop-color:#000000;stop-opacity:1"
             id="stop23" /></meshpatch><meshpatch
           id="meshpatch25"><stop
             path="c 0,85.9497  0,171.899  0,257.849"
             id="stop24" /><stop
             path="c -117.473,0  -234.945,0  -352.418,0"
             style="stop-color:#ffffff;stop-opacity:1"
             id="stop25" /></meshpatch></meshrow></meshgradient><meshgradient
       id="meshgradient25"
       gradientUnits="userSpaceOnUse"
       x="11.05641"
       y="11.882043"><meshrow
         id="meshrow35"><meshpatch
           id="meshpatch29"><stop
             path="c 117.473,0  234.945,0  352.418,0"
             style="stop-color:#ffffff;stop-opacity:1"
             id="stop26" /><stop
             path="c 0,85.9497  0,171.899  0,257.849"
             style="stop-color:#000000;stop-opacity:1"
             id="stop27" /><stop
             path="c -117.473,0  -234.945,0  -352.418,0"
             style="stop-color:#ffffff;stop-opacity:1"
             id="stop28" /><stop
             path="c 0,-85.9497  0,-171.899  0,-257.849"
             style="stop-color:#000000;stop-opacity:1"
             id="stop29" /></meshpatch><meshpatch
           id="meshpatch32"><stop
             path="c 117.473,0  234.945,0  352.418,0"
             id="stop30" /><stop
             path="c 0,85.9497  0,171.899  0,257.849"
             style="stop-color:#ffffff;stop-opacity:1"
             id="stop31" /><stop
             path="c -117.473,0  -234.945,0  -352.418,0"
             style="stop-color:#000000;stop-opacity:1"
             id="stop32" /></meshpatch><meshpatch
           id="meshpatch35"><stop
             path="c 117.473,0  234.945,0  352.418,0"
             id="stop33" /><stop
             path="c 0,85.9497  0,171.899  0,257.849"
             style="stop-color:#000000;stop-opacity:1"
             id="stop34" /><stop
             path="c -117.473,0  -234.945,0  -352.418,0"
             style="stop-color:#ffffff;stop-opacity:1"
             id="stop35" /></meshpatch></meshrow><meshrow
         id="meshrow42"><meshpatch
           id="meshpatch38"><stop
             path="c 0,85.9497  0,171.899  0,257.849"
             id="stop36" /><stop
             path="c -117.473,0  -234.945,0  -352.418,0"
             style="stop-color:#000000;stop-opacity:1"
             id="stop37" /><stop
             path="c 0,-85.9497  0,-171.899  0,-257.849"
             style="stop-color:#ffffff;stop-opacity:1"
             id="stop38" /></meshpatch><meshpatch
           id="meshpatch40"><stop
             path="c 0,85.9497  0,171.899  0,257.849"
             id="stop39" /><stop
             path="c -117.473,0  -234.945,0  -352.418,0"
             style="stop-color:#ffffff;stop-opacity:1"
             id="stop40" /></meshpatch><meshpatch
           id="meshpatch42"><stop
             path="c 0,85.9497  0,171.899  0,257.849"
             id="stop41" /><stop
             path="c -117.473,0  -234.945,0  -352.418,0"
             style="stop-color:#000000;stop-opacity:1"
             id="stop42" /></meshpatch></meshrow><meshrow
         id="meshrow49"><meshpatch
           id="meshpatch45"><stop
             path="c 0,85.9497  0,171.899  0,257.849"
             id="stop43" /><stop
             path="c -117.473,0  -234.945,0  -352.418,0"
             style="stop-color:#ffffff;stop-opacity:1"
             id="stop44" /><stop
             path="c 0,-85.9497  0,-171.899  0,-257.849"
             style="stop-color:#000000;stop-opacity:1"
             id="stop45" /></meshpatch><meshpatch
           id="meshpatch47"><stop
             path="c 0,85.9497  0,171.899  0,257.849"
             id="stop46" /><stop
             path="c -117.473,0  -234.945,0  -352.418,0"
             style="stop-color:#000000;stop-opacity:1"
             id="stop47" /></meshpatch><meshpatch
           id="meshpatch49"><stop
             path="c 0,85.9497  0,171.899  0,257.849"
             id="stop48" /><stop
             path="c -117.473,0  -234.945,0  -352.418,0"
             style="stop-color:#ffffff;stop-opacity:1"
             id="stop49" /></meshpatch></meshrow></meshgradient></defs><g
     id="layer4"
     transform="translate(-11.05641,-11.882043)"><path
       style="display:inline;opacity:1;fill:#ffffff;fill-opacity:1;stroke:none;stroke-width:1.05665"
       d="m 288.50346,848.88499 c 8.81044,-9.7e-4 12.35864,-1.24593 13.73633,-10.5664 4.25125,0 10.78361,-1.2033 14.55244,1.08597 7.32379,4.44868 4.38022,9.47224 15.03348,9.48043 l -14.79296,-45.43555 -11.18034,1.08599 c 0,0 -4.25561,8.3346 -6.0512,12.65034 -4.30901,10.35681 -11.29775,31.69922 -11.29775,31.69922 m 85.58789,-45.43555 v 45.43555 h 9.50977 c 0,-3.22216 -1.8431,-16.62674 3.28406,-16.54097 5.27073,0.0882 8.4075,9.86551 11.28224,13.21452 3.3913,3.9508 8.16645,3.32593 12.90634,3.32645 -2.72373,-7.18624 -7.99626,-16.23625 -14.79296,-20.07617 7.88844,-4.24515 15.1371,-16.78436 4.18009,-22.7675 -7.55549,-4.12576 -18.09822,-2.59188 -26.36954,-2.59188 m 75.02147,33.8125 c 0.002,2.97483 -0.70808,7.39546 1.69422,9.65978 7.47739,7.04784 26.69458,1.23018 28.58067,-8.60313 1.63561,-8.52749 -4.72638,-12.59921 -11.25535,-16.12358 -2.59778,-1.40232 -8.22192,-4.1008 -7.03124,-7.94189 1.90553,-6.14721 12.58403,-2.19842 16.54101,-1.29391 -0.049,-13.86138 -21.7632,-12.80429 -27.13675,-2.09697 -7.40412,14.75344 11.35424,15.46434 16.78068,23.58527 7.02572,10.51429 -15.4743,3.93634 -18.17324,2.81443 m 73.96486,-33.8125 v 45.43555 h 26.41601 v -8.45312 h -16.90626 v -10.56642 h 14.79298 v -7.39647 c -9.46366,0 -14.7547,0.27384 -14.79298,-10.56642 h 15.84961 v -8.45312 h -25.35936 m 64.45507,0 c 3.44588,10.59008 7.04455,21.13372 10.5664,31.69922 1.25676,3.77029 2.18694,10.29941 5.72589,12.65034 2.94419,1.95586 8.76662,1.60432 10.88686,-1.36317 6.83715,-9.56923 13.01163,-31.3251 14.02984,-42.98639 -14.34443,0.0111 -17.9925,22.29645 -19.01954,34.86915 -6.97799,-13.29547 -3.96639,-34.86715 -22.18945,-34.86915 m 82.41796,0 c 0,11.56906 -3.13722,28.79036 3.41042,38.99625 6.20486,9.67165 25.47186,8.90871 31.01767,-0.9735 5.65725,-10.08084 2.55434,-26.79987 2.55434,-38.02275 h -9.50977 v 14.79298 c 0,5.55103 1.22717,13.00743 -1.96327,17.90091 -3.97763,6.10089 -11.65561,4.37302 -14.15862,-2.05621 -3.31432,-8.51304 2.56738,-20.08114 -1.42192,-28.18852 -1.64139,-3.33573 -6.87959,-2.44683 -9.92885,-2.44916 m 80.3047,33.8125 c 0.002,2.9749 -0.7082,7.39539 1.6942,9.65978 7.00212,6.59987 26.40086,1.81868 28.53092,-7.55057 1.74529,-7.67695 -2.72009,-12.77945 -9.09315,-16.10318 -2.8272,-1.47449 -9.47932,-3.92977 -8.84202,-8.09681 1.06742,-6.97967 12.31454,-3.1091 16.23934,-2.21195 -0.0491,-13.85577 -21.77282,-12.8121 -27.13678,-2.09697 -7.22945,14.44156 11.57075,15.62918 16.92747,23.57384 6.99186,10.36984 -15.63156,3.92855 -18.31998,2.82586 M 383.60112,823.52561 c 0,-3.05241 0.001,-9.1699 -0.0499,-12.54303 7.75473,-0.0342 11.77438,1.15718 11.82472,6.59791 0.0503,5.44073 -6.86291,5.98965 -11.77478,5.94512 m -72.90821,-10.5664 5.28321,17.96289 h -11.62305 l 6.33984,-17.96289 m -89.79408,1.66157 c -5.8693,1.75975 -7.1848,10.00211 -1.01505,12.49383 9.12649,3.68586 24.98664,0.63756 34.80718,0.63756 3.86431,0 9.04784,0.81209 12.52316,-1.24579 5.87914,-3.48128 2.81947,-11.16509 -3.01828,-12.24921 -11.16011,-2.07258 -32.42849,-2.89498 -43.29701,0.36361 m 593.87363,0.17943 c -6.02517,2.52113 -4.97429,10.78141 1.01505,12.49376 9.88716,2.82681 23.52263,0.4582 33.79212,0.4582 3.76905,0 9.13893,0.91792 12.52316,-1.08597 6.00255,-3.55437 2.73138,-11.08519 -3.0183,-12.28674 -10.21466,-2.13463 -34.6832,-3.60834 -44.31203,0.42075 z"
       id="path4" /></g><g
     id="layer1"
     transform="translate(-11.05641,-11.882043)"><path
       style="display:inline;opacity:1;fill:#ffffff;fill-opacity:1;stroke:none;stroke-width:1.05665"
       d="m 242.01126,567.81859 c -1.08116,4.59442 -1.99984,18.00997 2.70927,21.00885 4.06226,2.58698 14.77932,-1.57251 19.48018,-1.89478 17.8174,-1.22136 35.73132,5.38962 52.83204,-2.07658 21.62138,-9.43992 29.8245,-35.70349 53.88867,-41.89139 17.55721,-4.5147 32.56358,2.7615 49.66211,4.59431 20.71581,2.22047 41.58701,2.02659 62.34179,3.44788 17.54998,1.20188 35.22908,5.10546 52.83204,5.10546 17.16944,0 34.69018,-3.39474 51.77539,-5.02059 21.38073,-2.03473 43.0414,-1.45643 64.45507,-3.52876 15.69613,-1.51892 30.42247,-8.22597 46.4922,-5.69646 26.57111,4.18238 34.42298,29.87189 56.00195,41.4592 14.7295,7.90933 29.68352,4.24379 45.43555,3.55398 9.68982,-0.42436 18.92583,1.87344 28.52929,2.07168 l 2.11328,-19.01952 c -13.80881,1.20413 -27.01424,6.82204 -41.20899,4.97744 -9.31099,-1.20994 -17.62913,-4.73058 -25.35936,-9.99242 -29.44419,-20.04213 -34.70128,-55.33517 -26.94105,-87.9694 3.60312,-15.15226 10.86984,-28.34994 11.0719,-44.3789 0.25352,-20.11546 -13.76214,-37.21293 -15.65072,-57.0586 -0.93792,-9.85563 9.11758,-24.66234 5.82133,-32.75585 -12.15692,-29.84965 -53.90847,-42.26564 -83.13545,-42.26564 -9.24818,0 -20.18942,0.0972 -28.52846,4.66763 -7.42982,4.07217 -10.13857,12.04051 -14.79381,18.57847 3.81324,5.41838 8.49409,9.70712 11.29285,15.84961 4.31717,9.475 5.03981,20.02181 9.08335,29.58594 4.79925,11.35166 11.82393,22.98469 0.56095,33.10559 -15.92184,14.30728 -41.15526,10.48296 -58.97621,21.27387 -11.07964,6.70892 -20.7839,18.29882 -27.7906,29.09515 -1.97101,3.03707 -5.24025,11.69237 -10.14167,9.59297 -3.73396,-1.59936 -5.74586,-7.47904 -7.8832,-10.64962 -4.966,-7.36656 -11.26283,-14.80302 -17.67754,-20.9494 -14.27252,-13.67538 -34.73572,-14.68532 -52.73745,-20.28654 -8.95533,-2.78645 -19.53967,-7.79078 -21.77284,-17.93594 -1.70363,-7.73951 3.29778,-15.36242 6.21918,-22.18945 4.24098,-9.91071 5.07183,-20.82724 9.54401,-30.64257 1.89466,-4.15826 7.63002,-9.25308 7.80414,-13.73633 0.20796,-5.35381 -6.63531,-14.3256 -10.34626,-17.73704 -7.13403,-6.55827 -19.16525,-7.5768 -28.43066,-7.6215 -21.63482,-0.10424 -42.21928,4.58282 -61.28516,15.12233 -8.28728,4.58115 -25.76564,17.13314 -24.80576,28.1991 0.9954,11.47549 9.13871,20.16995 7.59701,32.75587 -2.3314,19.03287 -15.28404,35.62608 -15.52754,54.9453 -0.30914,24.52794 14.24051,46.12729 14.71633,70.79493 0.64583,33.47984 -19.98188,66.99259 -54.88823,72.44424 -14.54162,2.27117 -30.90378,-1.73432 -44.37892,-6.93252 M 536.81401,450.53148 c 13.11287,-12.70484 19.89113,-29.90266 38.03906,-37.54828 15.13773,-6.37745 43.62293,-4.03335 54.4871,-17.5079 4.28485,-5.31435 1.4966,-11.21029 -0.5422,-16.79538 -4.59139,-12.57779 -5.20781,-39.64558 -17.1875,-47.6132 -4.43578,-2.9502 -10.66785,-0.96217 -15.6246,-0.99718 -9.81526,-0.0694 -19.84374,-2.15939 -29.58594,-3.32889 -27.22732,-3.26853 -51.06287,-1.13468 -78.1914,2.11328 -6.58185,0.78803 -20.87258,-1.21807 -26.00346,2.91472 -9.0015,7.25054 -9.94393,25.96747 -12.82318,36.34485 -1.85515,6.6863 -7.30132,15.16252 -6.20289,22.18945 2.24577,14.36694 28.801,15.24655 39.74632,17.84063 25.1513,5.96095 40.50383,20.59694 53.88869,42.3879 M 327.59915,352.26389 c -15.96823,38.35386 -40.42852,73.13322 -57.78909,110.94727 -14.18688,30.90125 -23.53067,63.46887 -27.7988,97.21094 9.51974,3.90455 18.34427,5.72394 28.52931,6.94401 8.54044,1.0231 18.7477,-0.78668 26.41601,-4.63016 5.9039,-2.95916 11.39906,-7.22957 16.11867,-11.82769 34.96643,-34.0664 6.69107,-78.26324 7.60844,-118.33967 0.41785,-18.25434 10.38241,-34.03893 12.93817,-51.77539 1.45404,-10.09071 -1.34882,-18.95105 -3.90943,-28.52931 h -2.11328 m 416.31642,3.16993 c -7.98678,28.3542 9.45114,49.42768 10.08542,77.13477 0.78274,34.19209 -19.85065,67.56618 -4.47202,101.4375 10.25381,22.58388 33.53512,35.51806 57.78504,32.93114 5.93262,-0.63286 14.80199,-0.6595 19.73616,-4.49563 3.74926,-2.91491 1.36963,-9.69401 0.78512,-13.64255 -1.91638,-12.94597 -5.34956,-25.36414 -8.50361,-38.03906 -10.04383,-40.36246 -32.29287,-78.01573 -52.31681,-114.11718 -6.99888,-12.61837 -12.88174,-31.09919 -23.0993,-41.20899 M 394.16752,401.926 c 5.67431,0 16.14717,-1.99389 20.7969,1.841 4.56269,3.76313 4.34503,23.40706 -0.87725,26.49914 -5.03762,2.98277 -14.24309,1.2458 -19.91965,1.2458 1.27232,5.34409 2.87477,15.08609 -0.78433,19.78184 -4.40994,5.65944 -24.66399,5.65937 -29.07393,0 -3.6591,-4.69575 -2.05668,-14.43769 -0.78433,-19.78184 -5.67656,0 -14.88202,1.73697 -19.91965,-1.2458 -5.22228,-3.09208 -5.43994,-22.73601 -0.87725,-26.49914 4.64973,-3.83489 15.12256,-1.841 20.7969,-1.841 -1.27232,-5.34409 -2.87469,-15.08607 0.78433,-19.78183 4.40994,-5.65938 24.66399,-5.65938 29.07393,0 3.65907,4.69576 2.05665,14.43774 0.78433,19.78183 m 296.91601,-21.57632 c 19.56624,0 19.56616,29.41633 0,29.41633 -19.59758,0 -19.43919,-29.41633 0,-29.41633 m -22.18945,22.21228 c 18.24582,0 18.22266,28.09572 0,28.32545 -18.23324,0.22984 -18.2502,-28.32545 0,-28.32545 m 45.43555,0 c 18.24581,0 18.2226,28.09572 0,28.32545 -18.23325,0.22984 -18.25014,-28.32545 0,-28.32545 m -22.18945,23.38469 c 17.54723,0.60701 16.50265,27.58772 -1.05665,26.9802 -17.54717,-0.60708 -16.50278,-27.58765 1.05665,-26.9802 m -237.74415,26.0377 c 47.25003,-2.41226 49.30721,70.76294 2.11328,73.17236 -47.25,2.41228 -49.30723,-70.76293 -2.11328,-73.17236 m 160.60938,0 c 47.25003,-2.41226 49.3072,70.76294 2.11328,73.17236 -47.24997,2.41228 -49.30727,-70.76293 -2.11328,-73.17236 M 246.23782,595.29123 c 3.50571,19.42611 24.76215,26.19611 41.20899,30.52031 35.04634,9.2144 87.13142,11.66742 111.16983,-22.06717 6.80058,-9.54369 8.79748,-23.46924 10.17997,-34.86915 0.40026,-3.30045 2.24942,-9.15132 0.13046,-12.08371 -2.15013,-2.97547 -8.28463,-3.15212 -11.58964,-3.6273 -11.65054,-1.67506 -24.01515,-2.59627 -34.86913,2.83076 -18.85811,9.42902 -28.66519,29.67583 -49.66211,36.08475 -21.46936,6.55312 -44.41748,-2.51952 -66.56837,3.21151 m 580.09571,-1.05663 c -7.72236,-0.60945 -15.47259,-2.39957 -23.2461,-2.07168 -15.06809,0.63557 -29.72111,4.37908 -44.3789,-1.16751 -18.73835,-7.09079 -28.26088,-25.26824 -45.43555,-34.45742 -9.64281,-5.15939 -21.06587,-5.47938 -31.69922,-3.95673 -5.11384,0.73225 -14.4738,0.69046 -18.37789,4.51678 -3.21584,3.15187 -0.48491,12.06753 0.15492,16.00374 2.72382,16.75682 6.81166,30.65555 20.33625,41.92157 27.34258,22.7764 69.9691,18.61084 101.4375,10.51913 17.7669,-4.56856 35.63087,-11.98137 41.20899,-31.30788"
       id="path1" /></g><g
     id="layer5"
     style="fill:url(#meshgradient1707);fill-opacity:1"
     transform="translate(-11.05641,-11.882043)"><g
       id="layer2"
       style="fill:url(#meshgradient2);fill-opacity:1"><path
         style="display:inline;opacity:1;fill:#ffffff;fill-opacity:1;stroke:none;stroke-width:1.05665"
         d="m 766.10502,380.7932 c 3.73887,10.2705 10.40279,20.11022 15.84961,29.58594 1.82964,3.18294 3.78065,8.57468 7.59215,9.83015 7.64065,2.51675 23.57159,-5.6459 31.50354,-7.24234 20.77675,-4.18161 41.22337,-5.97727 62.34181,-3.46511 44.08417,5.24412 85.07614,35.67517 109.34277,71.67221 10.9291,16.21219 19.5161,33.93078 24.69,52.83204 3.8153,13.93766 5.7823,28.87665 5.4284,43.32225 -2.3697,96.73784 -113.14564,138.41993 -195.46312,138.41993 -15.30111,0 -30.31619,-0.0362 -45.43555,-2.76227 -64.96296,-11.71269 -117.54483,-57.677 -163.77931,-101.88676 -10.40498,-9.94926 -20.61693,-20.24222 -30.28877,-30.90266 -5.38245,-5.93251 -11.70668,-14.81973 -18.49604,-19.04236 -5.26947,-3.27724 -16.14357,0.6431 -22.0101,1.20174 -13.41168,1.27721 -27.15848,0.37276 -40.15234,-2.99051 6.76023,14.4967 23.72875,27.41926 34.67424,39.00116 26.52707,28.06934 53.24678,55.51505 82.61287,80.68545 39.35832,33.73492 84.20453,63.79945 135.25,75.91419 20.92153,4.96538 41.99468,6.21757 63.39842,6.21757 76.67069,0 166.78626,-24.89974 213.7105,-89.81445 C 1117.12,560.35774 1032.737,397.66746 907.69486,367.99123 857.64954,356.11396 814.44813,369.60889 766.10502,380.7932 M 492.43509,615.36742 c -19.88205,6.46933 -41.58378,16.07081 -58.11523,29.07637 -17.63701,13.87531 -31.96592,30.9922 -50.71874,43.80165 C 328.33201,725.99796 246.3703,752.36303 179.66947,735.31896 58.219734,704.2849 11.831491,534.34067 106.76126,448.59761 c 36.13395,-32.6372 86.25957,-40.48036 133.13672,-35.92584 14.689,1.42715 28.79172,6.31713 43.32227,8.27377 l 21.13282,-41.20899 c -46.81144,-9.66223 -91.55699,-19.62685 -139.47656,-9.06135 -27.03883,5.96167 -53.72449,16.5113 -76.078137,33.10973 -104.428808,77.54242 -100.044265,244.65989 -8.453123,329.83168 85.85821,79.8406 225.13095,57.33863 316.99218,0.29757 45.97896,-28.55051 82.67456,-64.35678 95.09766,-118.54676"
         id="path2" /></g><g
       id="layer3"
       style="fill:url(#meshgradient25);fill-opacity:1"><path
         style="display:inline;opacity:1;fill:#ffffff;fill-opacity:1;stroke:none;stroke-width:1.05665"
         d="m 435.37651,12.474873 c -19.61306,2.66992 -37.99699,8.89541 -54.94532,19.2201 -4.92847,3.00237 -14.13564,7.954727 -15.32945,14.157847 -1.43485,7.45542 20.74661,14.94284 25.88038,20.07695 9.22496,9.22554 14.13875,21.79333 22.66886,31.66826 12.508,14.47999 31.46919,20.98016 50.25482,18.73331 17.22654,-2.06033 45.95292,-11.08362 52.6225,-29.28424 2.43334,-6.64037 0.37472,-15.4942 -1.07052,-22.18945 C 508.54776,32.846293 467.17707,8.1459033 435.37651,12.474873 m 187.02539,0.003 c -32.9356,4.71856 -74.09674,33.330787 -68.18267,71.399127 1.14157,7.34832 7.63355,12.92605 13.23735,17.24381 14.93982,11.51115 37.2923,17.64359 56.00195,15.20629 32.53956,-4.23887 38.4455,-33.28237 59.17271,-52.4276 5.06316,-4.67671 24.10204,-9.80235 23.90404,-17.00575 C 706.3362,39.65011 694.39579,33.570493 688.97025,30.440813 670.03321,19.517183 644.75812,9.2750433 622.4019,12.477923 M 398.39408,41.61138 c 21.23328,-23.166317 65.6615,-15.573897 87.70117,1.76354 8.1099,6.37964 15.17015,14.57724 20.20661,23.59584 1.92523,3.44742 4.52506,8.76946 0.58949,11.87907 -2.78146,2.19778 -6.13872,1.01983 -8.12292,-1.55484 C 490.98205,67.19151 486.89812,56.88585 476.58548,48.29529 454.3634,29.784023 423.8767,31.781543 398.39408,41.61138 M 675.23392,39.4981 c -8.09229,1.44289 -20.88625,-4.275887 -29.58594,-5.103847 -23.46336,-2.23298 -43.79904,7.483547 -58.95014,25.180017 -3.72192,4.34717 -11.20611,25.35841 -18.90456,19.27556 -4.28208,-3.38345 -0.9192,-9.35059 1.1993,-12.93572 5.94149,-10.0546 14.11509,-19.09654 23.82338,-25.6243 25.839,-17.374007 56.2634,-15.295177 82.41796,-0.79171 M 519.90775,89.16021 c -9.9623,13.07502 -22.61514,21.19802 -38.03906,26.41601 2.14324,7.03824 7.57568,3.72327 12.67968,1.50507 8.23656,-3.57965 38.33548,-16.42876 25.35938,-27.92108 m 30.64257,0 c -3.1705,13.01562 15.78893,21.69293 25.35938,26.08988 4.4555,2.04698 11.56223,6.80748 13.73633,0.32613 -16.69729,-5.64881 -26.13373,-15.20391 -39.09571,-26.41601 m -5.28319,7.39649 c -17.66155,20.40985 -33.60371,42.87855 -49.79584,64.45507 -4.44861,5.92793 -16.43491,16.4915 -16.11948,24.30273 0.51859,12.84163 19.75646,23.70793 29.98954,27.89006 3.47277,1.41928 9.49183,4.7986 13.18923,2.68075 7.31845,-4.19194 14.51676,-19.31401 19.21443,-26.34425 14.45684,-21.63507 30.80846,-42.92635 43.67446,-65.51171 -16.18407,-7.65974 -27.0957,-15.55017 -40.15234,-27.47265 m -17.96289,2.11328 c -10.96391,13.45449 -25.36154,18.53081 -40.15234,26.41601 l 15.84961,22.18945 c 6.43438,-10.33223 14.49126,-19.84696 21.79486,-29.58594 5.11522,-6.82089 10.142,-12.13601 2.50787,-19.01952 m 42.26562,54.9453 c -7.10162,10.52681 -14.08891,21.1334 -21.13282,31.69922 -2.77026,4.15543 -8.13208,9.69487 -8.73359,14.79298 -0.65531,5.55387 7.20062,16.70722 13.00253,16.74565 12.08294,0.0801 41.45438,-15.58769 41.48624,-29.42535 0.009,-3.93575 -3.78402,-7.62504 -5.99824,-10.5664 -5.79281,-7.69535 -11.42363,-16.85479 -18.62412,-23.2461 m -75.02149,35.92578 23.2461,17.9629 c -8.12002,-1.92871 -22.91551,-8.15176 -23.2461,-17.9629 m 86.64454,0 -1.05665,1.05665 1.05665,-1.05665 m -1.05665,2.11329 c -4.95248,8.49684 -13.81953,13.61056 -23.24608,15.84961 l 23.24608,-15.84961 m -108.83397,1.05664 c -17.95649,22.62336 -34.98765,45.97167 -52.83204,68.68164 -5.13107,6.53015 -18.257,18.5548 -17.20382,27.46859 1.57397,13.32171 26.11671,5.93026 35.16671,8.83634 6.88183,2.20989 17.01169,11.16786 24.25707,8.3422 6.73508,-2.62664 11.69171,-14.56737 15.54305,-20.34439 12.2523,-18.37841 32.5034,-39.28454 39.44793,-60.22852 -20.2001,-5.52479 -30.25846,-19.0768 -44.3789,-32.75586 m 129.96679,2.11328 c -10.9126,15.97711 -26.98451,26.35939 -45.43555,31.69922 10.5234,21.15371 27.03843,40.55761 40.15234,60.22851 3.76699,5.65049 8.78618,17.83244 15.86593,19.60164 7.51528,1.87802 17.81191,-7.19288 25.34306,-8.99285 8.76566,-2.09504 30.0871,4.18986 32.86434,-7.45518 2.0691,-8.67589 -10.47702,-20.1357 -15.34987,-26.39969 -17.39542,-22.36198 -33.21549,-48.86345 -53.44025,-68.68165"
         id="path3" /></g></g><script
     id="mesh_polyfill"
     type="text/javascript">
!function(){const t=&quot;http://www.w3.org/2000/svg&quot;,e=&quot;http://www.w3.org/1999/xlink&quot;,s=&quot;http://www.w3.org/1999/xhtml&quot;,r=2;if(document.createElementNS(t,&quot;meshgradient&quot;).x)return;const n=(t,e,s,r)=&gt;{let n=new x(.5*(e.x+s.x),.5*(e.y+s.y)),o=new x(.5*(t.x+e.x),.5*(t.y+e.y)),i=new x(.5*(s.x+r.x),.5*(s.y+r.y)),a=new x(.5*(n.x+o.x),.5*(n.y+o.y)),h=new x(.5*(n.x+i.x),.5*(n.y+i.y)),l=new x(.5*(a.x+h.x),.5*(a.y+h.y));return[[t,o,a,l],[l,h,i,r]]},o=t=&gt;{let e=t[0].distSquared(t[1]),s=t[2].distSquared(t[3]),r=.25*t[0].distSquared(t[2]),n=.25*t[1].distSquared(t[3]),o=e&gt;s?e:s,i=r&gt;n?r:n;return 18*(o&gt;i?o:i)},i=(t,e)=&gt;Math.sqrt(t.distSquared(e)),a=(t,e)=&gt;t.scale(2/3).add(e.scale(1/3)),h=t=&gt;{let e,s,r,n,o,i,a,h=new g;return t.match(/(\w+\(\s*[^)]+\))+/g).forEach(t=&gt;{let l=t.match(/[\w.-]+/g),d=l.shift();switch(d){case&quot;translate&quot;:2===l.length?e=new g(1,0,0,1,l[0],l[1]):(console.error(&quot;mesh.js: translate does not have 2 arguments!&quot;),e=new g(1,0,0,1,0,0)),h=h.append(e);break;case&quot;scale&quot;:1===l.length?s=new g(l[0],0,0,l[0],0,0):2===l.length?s=new g(l[0],0,0,l[1],0,0):(console.error(&quot;mesh.js: scale does not have 1 or 2 arguments!&quot;),s=new g(1,0,0,1,0,0)),h=h.append(s);break;case&quot;rotate&quot;:if(3===l.length&amp;&amp;(e=new g(1,0,0,1,l[1],l[2]),h=h.append(e)),l[0]){r=l[0]*Math.PI/180;let t=Math.cos(r),e=Math.sin(r);Math.abs(t)&lt;1e-16&amp;&amp;(t=0),Math.abs(e)&lt;1e-16&amp;&amp;(e=0),a=new g(t,e,-e,t,0,0),h=h.append(a)}else console.error(&quot;math.js: No argument to rotate transform!&quot;);3===l.length&amp;&amp;(e=new g(1,0,0,1,-l[1],-l[2]),h=h.append(e));break;case&quot;skewX&quot;:l[0]?(r=l[0]*Math.PI/180,n=Math.tan(r),o=new g(1,0,n,1,0,0),h=h.append(o)):console.error(&quot;math.js: No argument to skewX transform!&quot;);break;case&quot;skewY&quot;:l[0]?(r=l[0]*Math.PI/180,n=Math.tan(r),i=new g(1,n,0,1,0,0),h=h.append(i)):console.error(&quot;math.js: No argument to skewY transform!&quot;);break;case&quot;matrix&quot;:6===l.length?h=h.append(new g(...l)):console.error(&quot;math.js: Incorrect number of arguments for matrix!&quot;);break;default:console.error(&quot;mesh.js: Unhandled transform type: &quot;+d)}}),h},l=t=&gt;{let e=[],s=t.split(/[ ,]+/);for(let t=0,r=s.length-1;t&lt;r;t+=2)e.push(new x(parseFloat(s[t]),parseFloat(s[t+1])));return e},d=(t,e)=&gt;{for(let s in e)t.setAttribute(s,e[s])},c=(t,e,s,r,n)=&gt;{let o,i,a=[0,0,0,0];for(let h=0;h&lt;3;++h)e[h]&lt;t[h]&amp;&amp;e[h]&lt;s[h]||t[h]&lt;e[h]&amp;&amp;s[h]&lt;e[h]?a[h]=0:(a[h]=.5*((e[h]-t[h])/r+(s[h]-e[h])/n),o=Math.abs(3*(e[h]-t[h])/r),i=Math.abs(3*(s[h]-e[h])/n),a[h]&gt;o?a[h]=o:a[h]&gt;i&amp;&amp;(a[h]=i));return a},u=[[1,0,0,0,0,0,0,0,0,0,0,0,0,0,0,0],[0,0,0,0,1,0,0,0,0,0,0,0,0,0,0,0],[-3,3,0,0,-2,-1,0,0,0,0,0,0,0,0,0,0],[2,-2,0,0,1,1,0,0,0,0,0,0,0,0,0,0],[0,0,0,0,0,0,0,0,1,0,0,0,0,0,0,0],[0,0,0,0,0,0,0,0,0,0,0,0,1,0,0,0],[0,0,0,0,0,0,0,0,-3,3,0,0,-2,-1,0,0],[0,0,0,0,0,0,0,0,2,-2,0,0,1,1,0,0],[-3,0,3,0,0,0,0,0,-2,0,-1,0,0,0,0,0],[0,0,0,0,-3,0,3,0,0,0,0,0,-2,0,-1,0],[9,-9,-9,9,6,3,-6,-3,6,-6,3,-3,4,2,2,1],[-6,6,6,-6,-3,-3,3,3,-4,4,-2,2,-2,-2,-1,-1],[2,0,-2,0,0,0,0,0,1,0,1,0,0,0,0,0],[0,0,0,0,2,0,-2,0,0,0,0,0,1,0,1,0],[-6,6,6,-6,-4,-2,4,2,-3,3,-3,3,-2,-1,-2,-1],[4,-4,-4,4,2,2,-2,-2,2,-2,2,-2,1,1,1,1]],f=t=&gt;{let e=[];for(let s=0;s&lt;16;++s){e[s]=0;for(let r=0;r&lt;16;++r)e[s]+=u[s][r]*t[r]}return e},p=(t,e,s)=&gt;{const r=e*e,n=s*s,o=e*e*e,i=s*s*s;return t[0]+t[1]*e+t[2]*r+t[3]*o+t[4]*s+t[5]*s*e+t[6]*s*r+t[7]*s*o+t[8]*n+t[9]*n*e+t[10]*n*r+t[11]*n*o+t[12]*i+t[13]*i*e+t[14]*i*r+t[15]*i*o},y=t=&gt;{let e=[],s=[],r=[];for(let s=0;s&lt;4;++s)e[s]=[],e[s][0]=n(t[0][s],t[1][s],t[2][s],t[3][s]),e[s][1]=[],e[s][1].push(...n(...e[s][0][0])),e[s][1].push(...n(...e[s][0][1])),e[s][2]=[],e[s][2].push(...n(...e[s][1][0])),e[s][2].push(...n(...e[s][1][1])),e[s][2].push(...n(...e[s][1][2])),e[s][2].push(...n(...e[s][1][3]));for(let t=0;t&lt;8;++t){s[t]=[];for(let r=0;r&lt;4;++r)s[t][r]=[],s[t][r][0]=n(e[0][2][t][r],e[1][2][t][r],e[2][2][t][r],e[3][2][t][r]),s[t][r][1]=[],s[t][r][1].push(...n(...s[t][r][0][0])),s[t][r][1].push(...n(...s[t][r][0][1])),s[t][r][2]=[],s[t][r][2].push(...n(...s[t][r][1][0])),s[t][r][2].push(...n(...s[t][r][1][1])),s[t][r][2].push(...n(...s[t][r][1][2])),s[t][r][2].push(...n(...s[t][r][1][3]))}for(let t=0;t&lt;8;++t){r[t]=[];for(let e=0;e&lt;8;++e)r[t][e]=[],r[t][e][0]=s[t][0][2][e],r[t][e][1]=s[t][1][2][e],r[t][e][2]=s[t][2][2][e],r[t][e][3]=s[t][3][2][e]}return r};class x{constructor(t,e){this.x=t||0,this.y=e||0}toString(){return`(x=${this.x}, y=${this.y})`}clone(){return new x(this.x,this.y)}add(t){return new x(this.x+t.x,this.y+t.y)}scale(t){return void 0===t.x?new x(this.x*t,this.y*t):new x(this.x*t.x,this.y*t.y)}distSquared(t){let e=this.x-t.x,s=this.y-t.y;return e*e+s*s}transform(t){let e=this.x*t.a+this.y*t.c+t.e,s=this.x*t.b+this.y*t.d+t.f;return new x(e,s)}}class g{constructor(t,e,s,r,n,o){void 0===t?(this.a=1,this.b=0,this.c=0,this.d=1,this.e=0,this.f=0):(this.a=t,this.b=e,this.c=s,this.d=r,this.e=n,this.f=o)}toString(){return`affine: ${this.a} ${this.c} ${this.e} \n       ${this.b} ${this.d} ${this.f}`}append(t){t instanceof g||console.error(&quot;mesh.js: argument to Affine.append is not affine!&quot;);let e=this.a*t.a+this.c*t.b,s=this.b*t.a+this.d*t.b,r=this.a*t.c+this.c*t.d,n=this.b*t.c+this.d*t.d,o=this.a*t.e+this.c*t.f+this.e,i=this.b*t.e+this.d*t.f+this.f;return new g(e,s,r,n,o,i)}}class w{constructor(t,e){this.nodes=t,this.colors=e}paintCurve(t,e){if(o(this.nodes)&gt;r){const s=n(...this.nodes);let r=[[],[]],o=[[],[]];for(let t=0;t&lt;4;++t)r[0][t]=this.colors[0][t],r[1][t]=(this.colors[0][t]+this.colors[1][t])/2,o[0][t]=r[1][t],o[1][t]=this.colors[1][t];let i=new w(s[0],r),a=new w(s[1],o);i.paintCurve(t,e),a.paintCurve(t,e)}else{let s=Math.round(this.nodes[0].x);if(s&gt;=0&amp;&amp;s&lt;e){let r=4*(~~this.nodes[0].y*e+s);t[r]=Math.round(this.colors[0][0]),t[r+1]=Math.round(this.colors[0][1]),t[r+2]=Math.round(this.colors[0][2]),t[r+3]=Math.round(this.colors[0][3])}}}}class m{constructor(t,e){this.nodes=t,this.colors=e}split(){let t=[[],[],[],[]],e=[[],[],[],[]],s=[[[],[]],[[],[]]],r=[[[],[]],[[],[]]];for(let s=0;s&lt;4;++s){const r=n(this.nodes[0][s],this.nodes[1][s],this.nodes[2][s],this.nodes[3][s]);t[0][s]=r[0][0],t[1][s]=r[0][1],t[2][s]=r[0][2],t[3][s]=r[0][3],e[0][s]=r[1][0],e[1][s]=r[1][1],e[2][s]=r[1][2],e[3][s]=r[1][3]}for(let t=0;t&lt;4;++t)s[0][0][t]=this.colors[0][0][t],s[0][1][t]=this.colors[0][1][t],s[1][0][t]=(this.colors[0][0][t]+this.colors[1][0][t])/2,s[1][1][t]=(this.colors[0][1][t]+this.colors[1][1][t])/2,r[0][0][t]=s[1][0][t],r[0][1][t]=s[1][1][t],r[1][0][t]=this.colors[1][0][t],r[1][1][t]=this.colors[1][1][t];return[new m(t,s),new m(e,r)]}paint(t,e){let s,n=!1;for(let t=0;t&lt;4;++t)if((s=o([this.nodes[0][t],this.nodes[1][t],this.nodes[2][t],this.nodes[3][t]]))&gt;r){n=!0;break}if(n){let s=this.split();s[0].paint(t,e),s[1].paint(t,e)}else{new w([...this.nodes[0]],[...this.colors[0]]).paintCurve(t,e)}}}class b{constructor(t){this.readMesh(t),this.type=t.getAttribute(&quot;type&quot;)||&quot;bilinear&quot;}readMesh(t){let e=[[]],s=[[]],r=Number(t.getAttribute(&quot;x&quot;)),n=Number(t.getAttribute(&quot;y&quot;));e[0][0]=new x(r,n);let o=t.children;for(let t=0,r=o.length;t&lt;r;++t){e[3*t+1]=[],e[3*t+2]=[],e[3*t+3]=[],s[t+1]=[];let r=o[t].children;for(let n=0,o=r.length;n&lt;o;++n){let o=r[n].children;for(let r=0,i=o.length;r&lt;i;++r){let i=r;0!==t&amp;&amp;++i;let h,d=o[r].getAttribute(&quot;path&quot;),c=&quot;l&quot;;null!=d&amp;&amp;(c=(h=d.match(/\s*([lLcC])\s*(.*)/))[1]);let u=l(h[2]);switch(c){case&quot;l&quot;:0===i?(e[3*t][3*n+3]=u[0].add(e[3*t][3*n]),e[3*t][3*n+1]=a(e[3*t][3*n],e[3*t][3*n+3]),e[3*t][3*n+2]=a(e[3*t][3*n+3],e[3*t][3*n])):1===i?(e[3*t+3][3*n+3]=u[0].add(e[3*t][3*n+3]),e[3*t+1][3*n+3]=a(e[3*t][3*n+3],e[3*t+3][3*n+3]),e[3*t+2][3*n+3]=a(e[3*t+3][3*n+3],e[3*t][3*n+3])):2===i?(0===n&amp;&amp;(e[3*t+3][3*n+0]=u[0].add(e[3*t+3][3*n+3])),e[3*t+3][3*n+1]=a(e[3*t+3][3*n],e[3*t+3][3*n+3]),e[3*t+3][3*n+2]=a(e[3*t+3][3*n+3],e[3*t+3][3*n])):(e[3*t+1][3*n]=a(e[3*t][3*n],e[3*t+3][3*n]),e[3*t+2][3*n]=a(e[3*t+3][3*n],e[3*t][3*n]));break;case&quot;L&quot;:0===i?(e[3*t][3*n+3]=u[0],e[3*t][3*n+1]=a(e[3*t][3*n],e[3*t][3*n+3]),e[3*t][3*n+2]=a(e[3*t][3*n+3],e[3*t][3*n])):1===i?(e[3*t+3][3*n+3]=u[0],e[3*t+1][3*n+3]=a(e[3*t][3*n+3],e[3*t+3][3*n+3]),e[3*t+2][3*n+3]=a(e[3*t+3][3*n+3],e[3*t][3*n+3])):2===i?(0===n&amp;&amp;(e[3*t+3][3*n+0]=u[0]),e[3*t+3][3*n+1]=a(e[3*t+3][3*n],e[3*t+3][3*n+3]),e[3*t+3][3*n+2]=a(e[3*t+3][3*n+3],e[3*t+3][3*n])):(e[3*t+1][3*n]=a(e[3*t][3*n],e[3*t+3][3*n]),e[3*t+2][3*n]=a(e[3*t+3][3*n],e[3*t][3*n]));break;case&quot;c&quot;:0===i?(e[3*t][3*n+1]=u[0].add(e[3*t][3*n]),e[3*t][3*n+2]=u[1].add(e[3*t][3*n]),e[3*t][3*n+3]=u[2].add(e[3*t][3*n])):1===i?(e[3*t+1][3*n+3]=u[0].add(e[3*t][3*n+3]),e[3*t+2][3*n+3]=u[1].add(e[3*t][3*n+3]),e[3*t+3][3*n+3]=u[2].add(e[3*t][3*n+3])):2===i?(e[3*t+3][3*n+2]=u[0].add(e[3*t+3][3*n+3]),e[3*t+3][3*n+1]=u[1].add(e[3*t+3][3*n+3]),0===n&amp;&amp;(e[3*t+3][3*n+0]=u[2].add(e[3*t+3][3*n+3]))):(e[3*t+2][3*n]=u[0].add(e[3*t+3][3*n]),e[3*t+1][3*n]=u[1].add(e[3*t+3][3*n]));break;case&quot;C&quot;:0===i?(e[3*t][3*n+1]=u[0],e[3*t][3*n+2]=u[1],e[3*t][3*n+3]=u[2]):1===i?(e[3*t+1][3*n+3]=u[0],e[3*t+2][3*n+3]=u[1],e[3*t+3][3*n+3]=u[2]):2===i?(e[3*t+3][3*n+2]=u[0],e[3*t+3][3*n+1]=u[1],0===n&amp;&amp;(e[3*t+3][3*n+0]=u[2])):(e[3*t+2][3*n]=u[0],e[3*t+1][3*n]=u[1]);break;default:console.error(&quot;mesh.js: &quot;+c+&quot; invalid path type.&quot;)}if(0===t&amp;&amp;0===n||r&gt;0){let e=window.getComputedStyle(o[r]).stopColor.match(/^rgb\s*\(\s*(\d+)\s*,\s*(\d+)\s*,\s*(\d+)\s*\)$/i),a=window.getComputedStyle(o[r]).stopOpacity,h=255;a&amp;&amp;(h=Math.floor(255*a)),e&amp;&amp;(0===i?(s[t][n]=[],s[t][n][0]=Math.floor(e[1]),s[t][n][1]=Math.floor(e[2]),s[t][n][2]=Math.floor(e[3]),s[t][n][3]=h):1===i?(s[t][n+1]=[],s[t][n+1][0]=Math.floor(e[1]),s[t][n+1][1]=Math.floor(e[2]),s[t][n+1][2]=Math.floor(e[3]),s[t][n+1][3]=h):2===i?(s[t+1][n+1]=[],s[t+1][n+1][0]=Math.floor(e[1]),s[t+1][n+1][1]=Math.floor(e[2]),s[t+1][n+1][2]=Math.floor(e[3]),s[t+1][n+1][3]=h):3===i&amp;&amp;(s[t+1][n]=[],s[t+1][n][0]=Math.floor(e[1]),s[t+1][n][1]=Math.floor(e[2]),s[t+1][n][2]=Math.floor(e[3]),s[t+1][n][3]=h))}}e[3*t+1][3*n+1]=new x,e[3*t+1][3*n+2]=new x,e[3*t+2][3*n+1]=new x,e[3*t+2][3*n+2]=new x,e[3*t+1][3*n+1].x=(-4*e[3*t][3*n].x+6*(e[3*t][3*n+1].x+e[3*t+1][3*n].x)+-2*(e[3*t][3*n+3].x+e[3*t+3][3*n].x)+3*(e[3*t+3][3*n+1].x+e[3*t+1][3*n+3].x)+-1*e[3*t+3][3*n+3].x)/9,e[3*t+1][3*n+2].x=(-4*e[3*t][3*n+3].x+6*(e[3*t][3*n+2].x+e[3*t+1][3*n+3].x)+-2*(e[3*t][3*n].x+e[3*t+3][3*n+3].x)+3*(e[3*t+3][3*n+2].x+e[3*t+1][3*n].x)+-1*e[3*t+3][3*n].x)/9,e[3*t+2][3*n+1].x=(-4*e[3*t+3][3*n].x+6*(e[3*t+3][3*n+1].x+e[3*t+2][3*n].x)+-2*(e[3*t+3][3*n+3].x+e[3*t][3*n].x)+3*(e[3*t][3*n+1].x+e[3*t+2][3*n+3].x)+-1*e[3*t][3*n+3].x)/9,e[3*t+2][3*n+2].x=(-4*e[3*t+3][3*n+3].x+6*(e[3*t+3][3*n+2].x+e[3*t+2][3*n+3].x)+-2*(e[3*t+3][3*n].x+e[3*t][3*n+3].x)+3*(e[3*t][3*n+2].x+e[3*t+2][3*n].x)+-1*e[3*t][3*n].x)/9,e[3*t+1][3*n+1].y=(-4*e[3*t][3*n].y+6*(e[3*t][3*n+1].y+e[3*t+1][3*n].y)+-2*(e[3*t][3*n+3].y+e[3*t+3][3*n].y)+3*(e[3*t+3][3*n+1].y+e[3*t+1][3*n+3].y)+-1*e[3*t+3][3*n+3].y)/9,e[3*t+1][3*n+2].y=(-4*e[3*t][3*n+3].y+6*(e[3*t][3*n+2].y+e[3*t+1][3*n+3].y)+-2*(e[3*t][3*n].y+e[3*t+3][3*n+3].y)+3*(e[3*t+3][3*n+2].y+e[3*t+1][3*n].y)+-1*e[3*t+3][3*n].y)/9,e[3*t+2][3*n+1].y=(-4*e[3*t+3][3*n].y+6*(e[3*t+3][3*n+1].y+e[3*t+2][3*n].y)+-2*(e[3*t+3][3*n+3].y+e[3*t][3*n].y)+3*(e[3*t][3*n+1].y+e[3*t+2][3*n+3].y)+-1*e[3*t][3*n+3].y)/9,e[3*t+2][3*n+2].y=(-4*e[3*t+3][3*n+3].y+6*(e[3*t+3][3*n+2].y+e[3*t+2][3*n+3].y)+-2*(e[3*t+3][3*n].y+e[3*t][3*n+3].y)+3*(e[3*t][3*n+2].y+e[3*t+2][3*n].y)+-1*e[3*t][3*n].y)/9}}this.nodes=e,this.colors=s}paintMesh(t,e){let s=(this.nodes.length-1)/3,r=(this.nodes[0].length-1)/3;if(&quot;bilinear&quot;===this.type||s&lt;2||r&lt;2){let n;for(let o=0;o&lt;s;++o)for(let s=0;s&lt;r;++s){let r=[];for(let t=3*o,e=3*o+4;t&lt;e;++t)r.push(this.nodes[t].slice(3*s,3*s+4));let i=[];i.push(this.colors[o].slice(s,s+2)),i.push(this.colors[o+1].slice(s,s+2)),(n=new m(r,i)).paint(t,e)}}else{let n,o,a,h,l,d,u;const x=s,g=r;s++,r++;let w=new Array(s);for(let t=0;t&lt;s;++t){w[t]=new Array(r);for(let e=0;e&lt;r;++e)w[t][e]=[],w[t][e][0]=this.nodes[3*t][3*e],w[t][e][1]=this.colors[t][e]}for(let t=0;t&lt;s;++t)for(let e=0;e&lt;r;++e)0!==t&amp;&amp;t!==x&amp;&amp;(n=i(w[t-1][e][0],w[t][e][0]),o=i(w[t+1][e][0],w[t][e][0]),w[t][e][2]=c(w[t-1][e][1],w[t][e][1],w[t+1][e][1],n,o)),0!==e&amp;&amp;e!==g&amp;&amp;(n=i(w[t][e-1][0],w[t][e][0]),o=i(w[t][e+1][0],w[t][e][0]),w[t][e][3]=c(w[t][e-1][1],w[t][e][1],w[t][e+1][1],n,o));for(let t=0;t&lt;r;++t){w[0][t][2]=[],w[x][t][2]=[];for(let e=0;e&lt;4;++e)n=i(w[1][t][0],w[0][t][0]),o=i(w[x][t][0],w[x-1][t][0]),w[0][t][2][e]=n&gt;0?2*(w[1][t][1][e]-w[0][t][1][e])/n-w[1][t][2][e]:0,w[x][t][2][e]=o&gt;0?2*(w[x][t][1][e]-w[x-1][t][1][e])/o-w[x-1][t][2][e]:0}for(let t=0;t&lt;s;++t){w[t][0][3]=[],w[t][g][3]=[];for(let e=0;e&lt;4;++e)n=i(w[t][1][0],w[t][0][0]),o=i(w[t][g][0],w[t][g-1][0]),w[t][0][3][e]=n&gt;0?2*(w[t][1][1][e]-w[t][0][1][e])/n-w[t][1][3][e]:0,w[t][g][3][e]=o&gt;0?2*(w[t][g][1][e]-w[t][g-1][1][e])/o-w[t][g-1][3][e]:0}for(let s=0;s&lt;x;++s)for(let r=0;r&lt;g;++r){let n=i(w[s][r][0],w[s+1][r][0]),o=i(w[s][r+1][0],w[s+1][r+1][0]),c=i(w[s][r][0],w[s][r+1][0]),x=i(w[s+1][r][0],w[s+1][r+1][0]),g=[[],[],[],[]];for(let t=0;t&lt;4;++t){(d=[])[0]=w[s][r][1][t],d[1]=w[s+1][r][1][t],d[2]=w[s][r+1][1][t],d[3]=w[s+1][r+1][1][t],d[4]=w[s][r][2][t]*n,d[5]=w[s+1][r][2][t]*n,d[6]=w[s][r+1][2][t]*o,d[7]=w[s+1][r+1][2][t]*o,d[8]=w[s][r][3][t]*c,d[9]=w[s+1][r][3][t]*x,d[10]=w[s][r+1][3][t]*c,d[11]=w[s+1][r+1][3][t]*x,d[12]=0,d[13]=0,d[14]=0,d[15]=0,u=f(d);for(let e=0;e&lt;9;++e){g[t][e]=[];for(let s=0;s&lt;9;++s)g[t][e][s]=p(u,e/8,s/8),g[t][e][s]&gt;255?g[t][e][s]=255:g[t][e][s]&lt;0&amp;&amp;(g[t][e][s]=0)}}h=[];for(let t=3*s,e=3*s+4;t&lt;e;++t)h.push(this.nodes[t].slice(3*r,3*r+4));l=y(h);for(let s=0;s&lt;8;++s)for(let r=0;r&lt;8;++r)(a=new m(l[s][r],[[[g[0][s][r],g[1][s][r],g[2][s][r],g[3][s][r]],[g[0][s][r+1],g[1][s][r+1],g[2][s][r+1],g[3][s][r+1]]],[[g[0][s+1][r],g[1][s+1][r],g[2][s+1][r],g[3][s+1][r]],[g[0][s+1][r+1],g[1][s+1][r+1],g[2][s+1][r+1],g[3][s+1][r+1]]]])).paint(t,e)}}}transform(t){if(t instanceof x)for(let e=0,s=this.nodes.length;e&lt;s;++e)for(let s=0,r=this.nodes[0].length;s&lt;r;++s)this.nodes[e][s]=this.nodes[e][s].add(t);else if(t instanceof g)for(let e=0,s=this.nodes.length;e&lt;s;++e)for(let s=0,r=this.nodes[0].length;s&lt;r;++s)this.nodes[e][s]=this.nodes[e][s].transform(t)}scale(t){for(let e=0,s=this.nodes.length;e&lt;s;++e)for(let s=0,r=this.nodes[0].length;s&lt;r;++s)this.nodes[e][s]=this.nodes[e][s].scale(t)}}document.querySelectorAll(&quot;rect,circle,ellipse,path,text&quot;).forEach((r,n)=&gt;{let o=r.getAttribute(&quot;id&quot;);o||(o=&quot;patchjs_shape&quot;+n,r.setAttribute(&quot;id&quot;,o));const i=r.style.fill.match(/^url\(\s*&quot;?\s*#([^\s&quot;]+)&quot;?\s*\)/),a=r.style.stroke.match(/^url\(\s*&quot;?\s*#([^\s&quot;]+)&quot;?\s*\)/);if(i&amp;&amp;i[1]){const a=document.getElementById(i[1]);if(a&amp;&amp;&quot;meshgradient&quot;===a.nodeName){const i=r.getBBox();let l=document.createElementNS(s,&quot;canvas&quot;);d(l,{width:i.width,height:i.height});const c=l.getContext(&quot;2d&quot;);let u=c.createImageData(i.width,i.height);const f=new b(a);&quot;objectBoundingBox&quot;===a.getAttribute(&quot;gradientUnits&quot;)&amp;&amp;f.scale(new x(i.width,i.height));const p=a.getAttribute(&quot;gradientTransform&quot;);null!=p&amp;&amp;f.transform(h(p)),&quot;userSpaceOnUse&quot;===a.getAttribute(&quot;gradientUnits&quot;)&amp;&amp;f.transform(new x(-i.x,-i.y)),f.paintMesh(u.data,l.width),c.putImageData(u,0,0);const y=document.createElementNS(t,&quot;image&quot;);d(y,{width:i.width,height:i.height,x:i.x,y:i.y});let g=l.toDataURL();y.setAttributeNS(e,&quot;xlink:href&quot;,g),r.parentNode.insertBefore(y,r),r.style.fill=&quot;none&quot;;const w=document.createElementNS(t,&quot;use&quot;);w.setAttributeNS(e,&quot;xlink:href&quot;,&quot;#&quot;+o);const m=&quot;patchjs_clip&quot;+n,M=document.createElementNS(t,&quot;clipPath&quot;);M.setAttribute(&quot;id&quot;,m),M.appendChild(w),r.parentElement.insertBefore(M,r),y.setAttribute(&quot;clip-path&quot;,&quot;url(#&quot;+m+&quot;)&quot;),u=null,l=null,g=null}}if(a&amp;&amp;a[1]){const o=document.getElementById(a[1]);if(o&amp;&amp;&quot;meshgradient&quot;===o.nodeName){const i=parseFloat(r.style.strokeWidth.slice(0,-2))*(parseFloat(r.style.strokeMiterlimit)||parseFloat(r.getAttribute(&quot;stroke-miterlimit&quot;))||1),a=r.getBBox(),l=Math.trunc(a.width+i),c=Math.trunc(a.height+i),u=Math.trunc(a.x-i/2),f=Math.trunc(a.y-i/2);let p=document.createElementNS(s,&quot;canvas&quot;);d(p,{width:l,height:c});const y=p.getContext(&quot;2d&quot;);let g=y.createImageData(l,c);const w=new b(o);&quot;objectBoundingBox&quot;===o.getAttribute(&quot;gradientUnits&quot;)&amp;&amp;w.scale(new x(l,c));const m=o.getAttribute(&quot;gradientTransform&quot;);null!=m&amp;&amp;w.transform(h(m)),&quot;userSpaceOnUse&quot;===o.getAttribute(&quot;gradientUnits&quot;)&amp;&amp;w.transform(new x(-u,-f)),w.paintMesh(g.data,p.width),y.putImageData(g,0,0);const M=document.createElementNS(t,&quot;image&quot;);d(M,{width:l,height:c,x:0,y:0});let S=p.toDataURL();M.setAttributeNS(e,&quot;xlink:href&quot;,S);const k=&quot;pattern_clip&quot;+n,A=document.createElementNS(t,&quot;pattern&quot;);d(A,{id:k,patternUnits:&quot;userSpaceOnUse&quot;,width:l,height:c,x:u,y:f}),A.appendChild(M),o.parentNode.appendChild(A),r.style.stroke=&quot;url(#&quot;+k+&quot;)&quot;,g=null,p=null,S=null}}})}();
</script></svg>
